<?xml version="1.0" standalone="no"?>
<!DOCTYPE svg PUBLIC "-//W3C//DTD SVG 20010904//EN"
 "http://www.w3.org/TR/2001/REC-SVG-20010904/DTD/svg10.dtd">
<svg version="1.0" xmlns="http://www.w3.org/2000/svg"
 width="500.000000pt" height="500.000000pt" viewBox="0 0 500.000000 500.000000"
 preserveAspectRatio="xMidYMid meet">
<metadata>
Created by potrace 1.11, written by Peter Selinger 2001-2013
</metadata>
<g transform="translate(0.000000,500.000000) scale(0.100000,-0.100000)"
fill="#000000" stroke="none">
<path d="M0 4945 c0 -42 3 -55 15 -55 11 0 14 9 10 34 -4 35 11 59 37 55 27
-3 48 1 48 11 0 6 -25 10 -55 10 l-55 0 0 -55z"/>
<path d="M173 4988 c3 -9 21 -12 58 -10 81 6 85 22 5 22 -50 0 -67 -3 -63 -12z"/>
<path d="M390 4990 c0 -14 32 -15 265 -10 192 4 217 6 150 13 -100 9 -415 7
-415 -3z"/>
<path d="M897 4988 c-7 -4 561 -8 1261 -8 836 0 1272 3 1272 10 0 12 -2515 9
-2533 -2z"/>
<path d="M3460 4989 c-14 -4 245 -8 575 -9 330 -1 620 -1 645 -2 71 0 90 1 90
10 0 9 -1277 11 -1310 1z"/>
<path d="M4892 4988 c3 -7 19 -13 37 -14 18 -1 34 -4 37 -7 3 -2 5 -1111 5
-2462 0 -1777 -3 -2461 -11 -2469 -15 -15 -4872 -18 -4912 -4 -17 6 -28 18
-28 29 0 11 -4 19 -9 19 -5 0 -9 -18 -9 -40 l-1 -40 2500 0 2499 0 0 2500 0
2500 -56 0 c-39 0 -54 -4 -52 -12z"/>
<path d="M2 4778 c2 -35 7 -62 13 -61 14 3 18 29 10 79 -10 67 -26 53 -23 -18z"/>
<path d="M1 2395 c0 -1229 3 -2205 8 -2205 13 0 23 50 13 63 -6 7 -6 43 -1 86
4 41 6 78 4 82 -7 10 -7 4111 0 4117 12 12 4 62 -10 62 -13 0 -14 -270 -14
-2205z"/>
</g>
</svg>
